Coordinates
version=1
nRows=24
nColumns=24
inDegrees=yes

Units are S.I. units (second, meters, Newtons, ...)
Angles are in degrees.

endheader
time	pelvis_tilt	pelvis_list	pelvis_rotation	pelvis_tx	pelvis_ty	pelvis_tz	hip_flexion_r	hip_adduction_r	hip_rotation_r	knee_angle_r	ankle_angle_r	subtalar_angle_r	mtp_angle_r	hip_flexion_l	hip_adduction_l	hip_rotation_l	knee_angle_l	ankle_angle_l	subtalar_angle_l	mtp_angle_l	lumbar_extension	lumbar_bending	lumbar_rotation
      0.62000000	     -0.32057157	      9.71783940	      1.92006395	     -0.81347210	      0.96790347	      0.30299399	     28.63519658	    -12.18190671	     -0.41611242	     -0.87063300	      3.44139416	     -4.37974176	      0.78288433	    -22.24820935	     11.80838254	     14.03828072	      0.47478730	     10.71811300	    -13.82438481	      0.38763532	    -12.48954429	     -2.49057429	     -9.59714828
      0.62416667	     -0.43327428	      9.63278437	      2.00547288	     -0.80762808	      0.96716867	      0.30357510	     28.79151934	    -12.09152568	     -0.02311054	     -1.55008520	      3.13212470	     -4.95111985	      1.19775516	    -22.26366394	     11.68659412	     13.96651961	      0.00309665	     10.83808983	    -13.69298225	      0.45631090	    -12.33482396	     -2.36549020	     -9.48906057
      0.62833333	     -0.46190803	      9.51340191	      2.04552256	     -0.80171629	      0.96654221	      0.30420974	     28.86619860	    -11.94808055	      0.34977639	     -2.26976480	      2.90401135	     -5.44421001	      1.60998487	    -22.36665846	     11.53596737	     13.81108529	     -0.45765696	     10.95494633	    -13.48348577	      0.54189009	    -12.27193954	     -2.15865333	     -9.49797836
      0.63250000	     -0.51196990	      9.40368178	      2.10364945	     -0.79576652	      0.96593613	      0.30481062	     28.96868425	    -11.82152005	      0.64231890	     -3.02468049	      2.62668513	     -5.86389964	      1.95525641	    -22.42550576	     11.39603028	     13.68522461	     -0.97077828	     11.05833668	    -13.32096556	      0.63055275	    -12.17058973	     -1.96874715	     -9.47012251
      0.63666667	     -0.55477927	      9.28295370	      2.15755248	     -0.78977713	      0.96536976	      0.30542914	     29.05440359	    -11.67909844	      0.92063986	     -3.77498197	      2.29399710	     -6.29884090	      2.25463173	    -22.48270874	     11.24472901	     13.54382332	     -1.49820392	     11.12927603	    -13.15718514	      0.72769311	    -12.08165835	     -1.75756616	     -9.45797608
      0.64083333	     -0.60236433	      9.16078448	      2.21369021	     -0.78375205	      0.96482240	      0.30606268	     29.14644131	    -11.53334691	      1.15705241	     -4.53653513	      1.90068729	     -6.72264433	      2.54148036	    -22.51637802	     11.09294065	     13.38460182	     -2.06853955	     11.19128871	    -12.97699559	      0.84372323	    -11.98273539	     -1.55708394	     -9.43399702
      0.64500000	     -0.66476350	      9.03024299	      2.26512541	     -0.77769219	      0.96428828	      0.30669761	     29.25603909	    -11.37585805	      1.37215151	     -5.31011877	      1.51866592	     -7.07183790	      2.71246354	    -22.51246519	     10.94134882	     13.24632133	     -2.67775691	     11.21927474	    -12.89598969	      0.92842749	    -11.88088463	     -1.32740554	     -9.41365957
      0.64916667	     -0.73172447	      8.90521981	      2.32372059	     -0.77159739	      0.96378016	      0.30734848	     29.36761473	    -11.22405097	      1.55162962	     -6.07936426	      1.01618414	     -7.48740814	      2.89027385	    -22.49278034	     10.78976591	     13.06205215	     -3.30768049	     11.23896109	    -12.70460052	      1.03854378	    -11.75494328	     -1.12403868	     -9.39268519
      0.65333333	     -0.73184480	      8.75393784	      2.35571362	     -0.76546324	      0.96337061	      0.30805158	     29.40547782	    -11.03513338	      1.68971120	     -6.84005264	      0.46986283	     -7.89323066	      3.48598329	    -22.50747237	     10.61150668	     12.71449528	     -4.00668599	     11.37543141	    -12.23917896	      1.46773104	    -11.70138538	     -0.88118827	     -9.37045525
      0.65750000	     -0.84464074	      8.64766535	      2.43104957	     -0.75931819	      0.96285225	      0.30869050	     29.59294727	    -10.90859412	      1.78134834	     -7.67010070	     -0.03788597	     -8.24903477	      3.63829627	    -22.42624408	     10.48076184	     12.63872236	     -4.66044693	     11.25409692	    -12.24170200	      1.60538774	    -11.51023304	     -0.70387996	     -9.34605830
      0.66166667	     -0.92262838	      8.50955449	      2.48396193	     -0.75313463	      0.96240497	      0.30939278	     29.72534478	    -10.73722298	      1.87352985	     -8.45937394	     -0.61392818	     -8.64790046	      3.83121158	    -22.34445195	     10.32050972	     12.41900670	     -5.38157624	     11.20438244	    -12.06118683	      1.81979208	    -11.35535663	     -0.48371795	     -9.32805864
      0.66583333	     -0.99966113	      8.35040185	      2.52951148	     -0.74690868	      0.96199034	      0.31010207	     29.85943285	    -10.54687633	      1.90522034	     -9.25604481	     -1.16471694	     -8.86012843	      3.93279074	    -22.25575895	     10.14387256	     12.21533511	     -6.11086045	     11.04558810	    -11.99894936	      1.95760534	    -11.22888746	     -0.23618743	     -9.29390041
      0.67000000	     -1.06338460	      8.21966289	      2.57128281	     -0.74068413	      0.96158227	      0.31085575	     30.01523698	    -10.38143213	      1.90333421	    -10.12027882	     -1.70178636	     -9.15227919	      6.00018760	    -22.13912624	      9.98713192	     11.85392984	     -6.91811115	     10.94771315	    -11.62932523	      5.09938911	    -11.09373548	     -0.04904821	     -9.22672732
      0.67416667	     -1.14414347	      8.03985246	      2.61428523	     -0.73440502	      0.96121686	      0.31160632	     30.15564415	    -10.16537078	      1.90866875	    -10.93144099	     -2.26113056	     -9.47398187	      6.00645837	    -22.02951524	      9.79098650	     11.69254114	     -7.67101812	     10.73462045	    -11.65784999	      5.14097848	    -10.93251378	      0.23138446	     -9.24019240
      0.67833333	     -1.20845232	      7.87260094	      2.64049270	     -0.72810881	      0.96089112	      0.31238534	     30.29353978	     -9.95776809	      1.88023716	    -11.76842244	     -2.73573686	     -9.67006229	      6.01152473	    -21.90902302	      9.61134233	     11.44565301	     -8.47038839	     10.45699558	    -11.63222750	      5.19506160	    -10.78246775	      0.48961582	     -9.20642242
      0.68250000	     -1.30380873	      7.69103313	      2.67064269	     -0.72179596	      0.96054053	      0.31321637	     30.47681743	     -9.73074594	      1.85001170	    -12.64271946	     -3.17215902	     -9.91068092	      6.02147773	    -21.73530315	      9.41383881	     11.19305867	     -9.30698974	     10.20731026	    -11.51626647	      5.30263555	    -10.61974472	      0.73885489	     -9.17910957
      0.68666667	     -1.38052517	      7.51510185	      2.69292415	     -0.71547880	      0.96023539	      0.31407552	     30.64894957	     -9.50548928	      1.80317361	    -13.53780508	     -3.56350248	    -10.17671300	      6.04397488	    -21.54753741	      9.22016050	     10.87359164	    -10.20412029	     10.00473992	    -11.29691076	      5.55303135	    -10.44035583	      0.99116458	     -9.15587075
      0.69083333	     -1.45079711	      7.31400878	      2.69848481	     -0.70911903	      0.95997590	      0.31496265	     30.81280987	     -9.24932432	      1.73842889	    -14.44049848	     -3.86494140	    -10.34455478	      6.06953479	    -21.35955170	      9.00598941	     10.55412815	    -11.09565455	      9.66517451	    -11.18737832	      5.88746261	    -10.28435131	      1.27082756	     -9.11690104
      0.69500000	     -1.47066053	      7.07881899	      2.69276746	     -0.70274930	      0.95983022	      0.31590110	     30.89886297	     -8.95047628	      1.67596015	    -15.30597687	     -4.08562882	    -10.53270219	      6.33552967	    -21.20194628	      8.75094539	     10.19439564	    -12.00710759	      9.17021855	    -11.15794996	     10.23636421	    -10.20758744	      1.58261724	     -9.03970298
      0.69916667	     -1.48766949	      6.85771371	      2.66902621	     -0.69635671	      0.95971135	      0.31683651	     31.00486159	     -8.66249163	      1.59081650	    -16.22445357	     -4.18922071	    -10.61957294	      6.33495594	    -21.05492602	      8.52464332	      9.90820305	    -12.90698017	      8.62809981	    -11.21450504	     10.25300288	    -10.10171385	      1.89493814	     -9.00862914
      0.70333333	     -1.52386670	      6.62442928	      2.63967650	     -0.68996231	      0.95959825	      0.31781706	     31.13130376	     -8.35291402	      1.52632154	    -17.15395274	     -4.21527828	    -10.73146315	      6.33358907	    -20.85466268	      8.28506242	      9.57840366	    -13.85638308	      8.07801548	    -11.22876354	     10.30177100	     -9.97914824	      2.21367091	     -8.96485910
      0.70750000	     -1.61693668	      6.39432534	      2.62332160	     -0.68360929	      0.95943538	      0.31884533	     31.32632738	     -8.04506239	      1.46365808	    -18.10881164	     -4.18905090	    -10.84460486	      6.31813352	    -20.52411233	      8.03909403	      9.17181563	    -14.93824514	      7.62731865	    -11.02990579	     10.57659606	     -9.80895251	      2.48999149	     -8.92380217
      0.71166667	     -1.59557082	      6.12019373	      2.55248299	     -0.67717957	      0.95947676	      0.31991486	     31.37154462	     -7.66849104	      1.42127153	    -19.01697262	     -4.04267969	    -10.96655150	      6.31351272	    -20.35507221	      7.76083031	      8.80560758	    -15.90930421	      6.94566235	    -11.08338762	     10.68022018	     -9.74972478	      2.86613830	     -8.86908190
      0.71583333	     -1.62232114	      5.80935407	      2.49448205	     -0.67078527	      0.95949394	      0.32104155	     31.44812454	     -7.24923911	      1.38582705	    -19.89581446	     -3.90407856	    -11.16684661	      5.84646855	    -20.05607921	      7.42591607	      8.30330574	    -17.01593734	      6.28548141	    -10.96920886	     15.55875058	     -9.64472368	      3.24963661	     -8.77888327
